<svg xmlns="http://www.w3.org/2000/svg" viewBox="0 0 128 128" role="img" aria-label="Tu Senda 84">
  <rect width="128" height="128" rx="30" fill="#0f172a"/>
  <circle cx="36" cy="34" r="10" fill="#38bdf8"/>
  <path fill="#ffffff" d="M33 50h62v15H71v46H56V65H33z"/>
  <path fill="#38bdf8" d="M87 22c11 0 20 8 20 18 0 7-4 13-11 16 8 3 13 10 13 19 0 13-11 23-26 23-10 0-19-4-25-11l10-10c4 4 9 7 15 7 6 0 11-4 11-9 0-6-5-9-14-9h-7V52h7c8 0 12-4 12-9 0-4-4-7-9-7-5 0-9 2-13 6l-9-10c6-6 14-10 26-10z"/>
  <path fill="#facc15" d="M21 91h18v15H21z"/>
</svg>
